<svg xmlns="http://www.w3.org/2000/svg" width="640" height="480" viewBox="0 0 190 100">
  <defs>
    <symbol id="star" viewBox="0 0 10 10">
      <polygon points="5,0 6.5,3.5 10,3.5 7,5.6 8.5,9.5 5,7.2 1.5,9.5 3,5.6 0,3.5 3.5,3.5" fill="#fff"/>
    </symbol>
  </defs>
  <rect width="190" height="100" fill="#b22234"/>
  <rect y="7.6923" width="190" height="7.6923" fill="#fff"/>
  <rect y="23.0769" width="190" height="7.6923" fill="#fff"/>
  <rect y="38.4615" width="190" height="7.6923" fill="#fff"/>
  <rect y="53.8461" width="190" height="7.6923" fill="#fff"/>
  <rect y="69.2307" width="190" height="7.6923" fill="#fff"/>
  <rect y="84.6153" width="190" height="7.6923" fill="#fff"/>
  <rect width="76" height="53.8461" fill="#3c3b6e"/>
  <g fill="#fff">
    <g>
      <use href="#star" x="6" y="6" width="5" height="5"/>
      <use href="#star" x="18" y="6" width="5" height="5"/>
      <use href="#star" x="30" y="6" width="5" height="5"/>
      <use href="#star" x="42" y="6" width="5" height="5"/>
      <use href="#star" x="54" y="6" width="5" height="5"/>
      <use href="#star" x="66" y="6" width="5" height="5"/>
    </g>
    <g>
      <use href="#star" x="12" y="12" width="5" height="5"/>
      <use href="#star" x="24" y="12" width="5" height="5"/>
      <use href="#star" x="36" y="12" width="5" height="5"/>
      <use href="#star" x="48" y="12" width="5" height="5"/>
      <use href="#star" x="60" y="12" width="5" height="5"/>
    </g>
    <g>
      <use href="#star" x="6" y="18" width="5" height="5"/>
      <use href="#star" x="18" y="18" width="5" height="5"/>
      <use href="#star" x="30" y="18" width="5" height="5"/>
      <use href="#star" x="42" y="18" width="5" height="5"/>
      <use href="#star" x="54" y="18" width="5" height="5"/>
      <use href="#star" x="66" y="18" width="5" height="5"/>
    </g>
    <g>
      <use href="#star" x="12" y="24" width="5" height="5"/>
      <use href="#star" x="24" y="24" width="5" height="5"/>
      <use href="#star" x="36" y="24" width="5" height="5"/>
      <use href="#star" x="48" y="24" width="5" height="5"/>
      <use href="#star" x="60" y="24" width="5" height="5"/>
    </g>
    <g>
      <use href="#star" x="6" y="30" width="5" height="5"/>
      <use href="#star" x="18" y="30" width="5" height="5"/>
      <use href="#star" x="30" y="30" width="5" height="5"/>
      <use href="#star" x="42" y="30" width="5" height="5"/>
      <use href="#star" x="54" y="30" width="5" height="5"/>
      <use href="#star" x="66" y="30" width="5" height="5"/>
    </g>
    <g>
      <use href="#star" x="12" y="36" width="5" height="5"/>
      <use href="#star" x="24" y="36" width="5" height="5"/>
      <use href="#star" x="36" y="36" width="5" height="5"/>
      <use href="#star" x="48" y="36" width="5" height="5"/>
      <use href="#star" x="60" y="36" width="5" height="5"/>
    </g>
    <g>
      <use href="#star" x="6" y="42" width="5" height="5"/>
      <use href="#star" x="18" y="42" width="5" height="5"/>
      <use href="#star" x="30" y="42" width="5" height="5"/>
      <use href="#star" x="42" y="42" width="5" height="5"/>
      <use href="#star" x="54" y="42" width="5" height="5"/>
      <use href="#star" x="66" y="42" width="5" height="5"/>
    </g>
    <g>
      <use href="#star" x="12" y="48" width="5" height="5"/>
      <use href="#star" x="24" y="48" width="5" height="5"/>
      <use href="#star" x="36" y="48" width="5" height="5"/>
      <use href="#star" x="48" y="48" width="5" height="5"/>
      <use href="#star" x="60" y="48" width="5" height="5"/>
    </g>
    <g>
      <use href="#star" x="6" y="54" width="5" height="5"/>
      <use href="#star" x="18" y="54" width="5" height="5"/>
      <use href="#star" x="30" y="54" width="5" height="5"/>
      <use href="#star" x="42" y="54" width="5" height="5"/>
      <use href="#star" x="54" y="54" width="5" height="5"/>
      <use href="#star" x="66" y="54" width="5" height="5"/>
    </g>
  </g>
</svg>
